<?xml version="1.0" encoding="utf-8"?>
<!-- Generator: Adobe Illustrator 18.1.1, SVG Export Plug-In . SVG Version: 6.00 Build 0)  -->
<!DOCTYPE svg PUBLIC "-//W3C//DTD SVG 1.1//EN" "http://www.w3.org/Graphics/SVG/1.1/DTD/svg11.dtd">
<svg version="1.1" id="Layer_1" xmlns="http://www.w3.org/2000/svg" xmlns:xlink="http://www.w3.org/1999/xlink" x="0px" y="0px"
	 viewBox="0 0 1042 1042" enable-background="new 0 0 1042 1042" xml:space="preserve">
<g>
	<polygon fill="#ED1C24" points="521.3,520.3 521.3,520.3 521.3,520.3 	"/>
	<path fill="#AD5BA4" d="M521.3,520.3L521.3,520.3l363.9-363.9C792,63.3,663.4,5.7,521.3,5.7V520.3L521.3,520.3z"/>
	<path fill="#1A74BB" d="M521.3,5.7c-142.1,0-270.8,57.6-363.9,150.7l363.9,363.9V5.7z"/>
	<path fill="#D91A5B" d="M1035.9,520.3c0-142.1-57.6-270.8-150.7-363.9L521.3,520.3H1035.9z"/>
	<polygon fill="#ED1C24" points="521.3,520.3 521.3,520.3 521.3,520.3 	"/>
	<rect x="521.3" y="520.3" fill="#ED1C24" width="0" height="0"/>
	<path fill="#EE3F35" d="M521.3,520.3L521.3,520.3l363.9,363.9c93.1-93.1,150.7-221.8,150.7-363.9H521.3z"/>
	<path fill="#F6921C" d="M521.3,520.3V1035c142.1,0,270.8-57.6,363.9-150.7L521.3,520.3L521.3,520.3z"/>
	<path fill="#27B472" d="M521.3,520.3H6.6c0,142.1,57.6,270.8,150.7,363.9L521.3,520.3L521.3,520.3z"/>
	<path fill="#FCB812" d="M157.3,884.2c93.1,93.1,221.8,150.7,363.9,150.7V520.3L157.3,884.2z"/>
	<path fill="#00AEEF" d="M521.3,520.3L157.3,156.4C64.2,249.5,6.6,378.2,6.6,520.3L521.3,520.3L521.3,520.3z"/>
</g>
<circle fill="#FFFFFF" cx="521.3" cy="520.3" r="223"/>
<g>
	<path fill="#193B57" d="M568.7,432.8h-94.9c-8,0-14.4,6.5-14.4,14.4v14.1v55.3v37.4c0,7.4,6,13.4,13.4,13.4
		c6.4,0,11.8-4.6,13.1-10.6v-85.6c0-1.6,1.3-2.8,2.8-2.8c1.6,0,2.8,1.3,2.8,2.8l0,96.6v95.7c0,7.4,6,13.4,13.4,13.4
		c7.4,0,13.4-6,13.4-13.4v-95.7v-12.5c0-1.6,1.3-2.8,2.8-2.8c1.2,0,2.2,0.7,2.6,1.7c0.2,0.4,0.3,0.8,0.3,1.2v12.3h0v95.7
		c0,7.4,6,13.4,13.4,13.4c7.4,0,13.4-6,13.4-13.4v-95.7l0,0v-96.6c0-1.6,1.3-2.8,2.8-2.8c1.6,0,2.8,1.3,2.8,2.8v84.1
		c0.6,6.8,6.3,12.1,13.3,12.1c7.4,0,13.4-6,13.4-13.4v-37.4v-55.3v-14.1C583.1,439.3,576.7,432.8,568.7,432.8z"/>
	<path fill="#193B57" d="M494.1,399.6c0,15.4,12.5,27.8,27.8,27.8c15.4,0,27.8-12.5,27.8-27.8c0-15.4-12.5-27.8-27.8-27.8
		C506.5,371.8,494.1,384.2,494.1,399.6z"/>
</g>
<g>
	<path fill="#FFFFFF" d="M568.4,146.2v23.6H563v-23.6H568.4z"/>
	<path fill="#FFFFFF" d="M572.9,158.1c0-2.1-0.1-4-0.1-5.5h4.6l0.2,2.3h0.1c0.7-1.1,2.5-2.7,5.3-2.7c3.5,0,6.1,2.3,6.1,7.4v10.2
		h-5.3v-9.5c0-2.2-0.8-3.7-2.7-3.7c-1.5,0-2.3,1-2.7,2c-0.1,0.3-0.2,0.8-0.2,1.3v9.9h-5.3V158.1z"/>
	<path fill="#FFFFFF" d="M594,169.8v-13.2h-2.2v-3.9h2.2V152c0-2.1,0.6-4.3,2.2-5.7c1.3-1.3,3.2-1.7,4.7-1.7c1.2,0,2.1,0.1,2.8,0.4
		l-0.2,4.1c-0.5-0.1-1-0.2-1.7-0.2c-1.8,0-2.5,1.4-2.5,3v0.9h3.4v3.9h-3.4v13.2H594z"/>
	<path fill="#FFFFFF" d="M621.9,161c0,6.3-4.4,9.1-9,9.1c-5,0-8.9-3.3-8.9-8.8c0-5.5,3.6-9.1,9.1-9.1
		C618.4,152.2,621.9,155.9,621.9,161z M609.5,161.2c0,2.9,1.2,5.1,3.5,5.1c2.1,0,3.4-2.1,3.4-5.1c0-2.6-1-5.1-3.4-5.1
		C610.5,156,609.5,158.7,609.5,161.2z"/>
	<path fill="#FFFFFF" d="M625.2,158.3c0-2.5-0.1-4.2-0.1-5.6h4.6l0.2,3.2h0.1c0.9-2.5,3-3.5,4.6-3.5c0.5,0,0.7,0,1.1,0.1v5
		c-0.4-0.1-0.8-0.1-1.4-0.1c-2,0-3.3,1.1-3.6,2.7c-0.1,0.4-0.1,0.8-0.1,1.2v8.7h-5.3V158.3z"/>
	<path fill="#FFFFFF" d="M638.5,158.1c0-2.1-0.1-4-0.1-5.5h4.5l0.2,2.3h0.1c0.7-1.1,2.2-2.7,5.2-2.7c2.2,0,4,1.1,4.7,2.9h0.1
		c0.6-0.9,1.4-1.6,2.2-2.1c0.9-0.6,2-0.8,3.3-0.8c3.3,0,5.8,2.3,5.8,7.4v10.1h-5.2v-9.3c0-2.5-0.8-3.9-2.5-3.9
		c-1.2,0-2.1,0.8-2.5,1.9c-0.1,0.4-0.2,0.9-0.2,1.4v10h-5.2v-9.6c0-2.2-0.8-3.6-2.5-3.6c-1.4,0-2.2,1.1-2.5,1.9
		c-0.2,0.4-0.2,0.9-0.2,1.3v10h-5.2V158.1z"/>
	<path fill="#FFFFFF" d="M678.3,169.8L678,168h-0.1c-1.1,1.4-2.9,2.1-4.9,2.1c-3.5,0-5.5-2.5-5.5-5.3c0-4.4,4-6.6,10-6.5v-0.2
		c0-0.9-0.5-2.2-3.1-2.2c-1.8,0-3.6,0.6-4.7,1.3l-1-3.4c1.2-0.7,3.5-1.5,6.7-1.5c5.7,0,7.5,3.4,7.5,7.4v6c0,1.6,0.1,3.2,0.2,4.2
		H678.3z M677.7,161.7c-2.8,0-5,0.6-5,2.7c0,1.4,0.9,2,2.1,2c1.3,0,2.4-0.9,2.8-2c0.1-0.3,0.1-0.6,0.1-0.9V161.7z"/>
	<path fill="#FFFFFF" d="M692.8,147.7v4.9h3.8v3.9h-3.8v6.2c0,2.1,0.5,3,2.1,3c0.7,0,1.2-0.1,1.6-0.1l0,4c-0.7,0.3-2,0.5-3.5,0.5
		c-1.7,0-3.2-0.6-4-1.5c-1-1-1.5-2.7-1.5-5.1v-7h-2.3v-3.9h2.3v-3.7L692.8,147.7z"/>
	<path fill="#FFFFFF" d="M705.2,147.9c0,1.5-1.1,2.7-2.9,2.7c-1.7,0-2.8-1.2-2.8-2.7c0-1.5,1.1-2.7,2.8-2.7
		C704,145.2,705.1,146.3,705.2,147.9z M699.7,169.8v-17.1h5.3v17.1H699.7z"/>
	<path fill="#FFFFFF" d="M726.2,161c0,6.3-4.4,9.1-9,9.1c-5,0-8.9-3.3-8.9-8.8c0-5.5,3.6-9.1,9.1-9.1
		C722.7,152.2,726.2,155.9,726.2,161z M713.8,161.2c0,2.9,1.2,5.1,3.5,5.1c2.1,0,3.4-2.1,3.4-5.1c0-2.6-1-5.1-3.4-5.1
		C714.7,156,713.8,158.7,713.8,161.2z"/>
	<path fill="#FFFFFF" d="M729.4,158.1c0-2.1-0.1-4-0.1-5.5h4.6l0.2,2.3h0.1c0.7-1.1,2.4-2.7,5.3-2.7c3.5,0,6.1,2.3,6.1,7.4v10.2
		h-5.3v-9.5c0-2.2-0.8-3.7-2.7-3.7c-1.5,0-2.3,1-2.7,2c-0.1,0.3-0.2,0.8-0.2,1.3v9.9h-5.3V158.1z"/>
	<path fill="#FFFFFF" d="M565.1,205.7l-1.7,6.1h-5.5l7.2-23.6h7l7.3,23.6h-5.7l-1.8-6.1H565.1z M571.1,201.7l-1.5-5
		c-0.4-1.4-0.8-3.1-1.2-4.6h-0.1c-0.4,1.4-0.7,3.2-1.1,4.6l-1.4,5H571.1z"/>
	<path fill="#FFFFFF" d="M582.2,200.3c0-2.5-0.1-4.2-0.1-5.6h4.6l0.2,3.2h0.1c0.9-2.5,3-3.5,4.6-3.5c0.5,0,0.7,0,1.1,0.1v5
		c-0.4-0.1-0.8-0.1-1.4-0.1c-2,0-3.3,1.1-3.6,2.7c-0.1,0.4-0.1,0.8-0.1,1.2v8.7h-5.3V200.3z"/>
	<path fill="#FFFFFF" d="M608.1,211.3c-0.9,0.4-2.7,0.8-4.8,0.8c-5.5,0-9.1-3.4-9.1-8.8c0-5,3.4-9.1,9.8-9.1c1.4,0,2.9,0.2,4.1,0.7
		l-0.8,4c-0.6-0.3-1.6-0.5-3-0.5c-2.8,0-4.6,2-4.6,4.8c0,3.2,2.1,4.8,4.7,4.8c1.3,0,2.2-0.2,3-0.5L608.1,211.3z"/>
	<path fill="#FFFFFF" d="M611,186.9h5.3v9.8h0.1c0.6-0.7,1.3-1.3,2.1-1.8c0.8-0.4,1.8-0.7,2.8-0.7c3.4,0,6,2.3,6,7.5v10h-5.3v-9.4
		c0-2.2-0.8-3.8-2.8-3.8c-1.4,0-2.3,0.9-2.7,1.9c-0.1,0.4-0.2,0.8-0.2,1.2v10.2H611V186.9z"/>
	<path fill="#FFFFFF" d="M637,189.9c0,1.5-1.1,2.7-2.9,2.7c-1.7,0-2.8-1.2-2.8-2.7c0-1.5,1.1-2.7,2.8-2.7
		C635.9,187.2,637,188.3,637,189.9z M631.5,211.8v-17.1h5.3v17.1H631.5z"/>
	<path fill="#FFFFFF" d="M647.1,189.7v4.9h3.8v3.9h-3.8v6.2c0,2.1,0.5,3,2.1,3c0.7,0,1.2-0.1,1.6-0.1l0,4c-0.7,0.3-2,0.5-3.5,0.5
		c-1.7,0-3.2-0.6-4-1.5c-1-1-1.5-2.7-1.5-5.1v-7h-2.3v-3.9h2.3v-3.7L647.1,189.7z"/>
	<path fill="#FFFFFF" d="M657.9,204.9c0.2,2.2,2.3,3.3,4.8,3.3c1.8,0,3.3-0.2,4.7-0.7l0.7,3.6c-1.8,0.7-3.9,1.1-6.2,1.1
		c-5.8,0-9.1-3.4-9.1-8.7c0-4.3,2.7-9.1,8.6-9.1c5.5,0,7.6,4.3,7.6,8.5c0,0.9-0.1,1.7-0.2,2.1H657.9z M664.1,201.3
		c0-1.3-0.6-3.5-3-3.5c-2.2,0-3.2,2-3.3,3.5H664.1z"/>
	<path fill="#FFFFFF" d="M685.1,211.3c-0.9,0.4-2.7,0.8-4.8,0.8c-5.5,0-9.1-3.4-9.1-8.8c0-5,3.4-9.1,9.8-9.1c1.4,0,2.9,0.2,4.1,0.7
		l-0.8,4c-0.6-0.3-1.6-0.5-3-0.5c-2.8,0-4.6,2-4.6,4.8c0,3.2,2.1,4.8,4.7,4.8c1.3,0,2.2-0.2,3-0.5L685.1,211.3z"/>
	<path fill="#FFFFFF" d="M694.5,189.7v4.9h3.8v3.9h-3.8v6.2c0,2.1,0.5,3,2.1,3c0.7,0,1.2-0.1,1.6-0.1l0,4c-0.7,0.3-2,0.5-3.5,0.5
		c-1.7,0-3.2-0.6-4-1.5c-1-1-1.5-2.7-1.5-5.1v-7h-2.3v-3.9h2.3v-3.7L694.5,189.7z"/>
	<path fill="#FFFFFF" d="M717.6,206.3c0,2.2,0.1,4.1,0.1,5.5h-4.6l-0.2-2.4h-0.1c-0.7,1-2.3,2.8-5.4,2.8c-3.5,0-6-2.2-6-7.5v-10h5.4
		v9.2c0,2.5,0.8,4,2.7,4c1.5,0,2.3-1,2.7-1.9c0.1-0.3,0.2-0.7,0.2-1.2v-10.2h5.4V206.3z"/>
	<path fill="#FFFFFF" d="M721.8,200.3c0-2.5-0.1-4.2-0.1-5.6h4.6l0.2,3.2h0.1c0.9-2.5,3-3.5,4.6-3.5c0.5,0,0.7,0,1.1,0.1v5
		c-0.4-0.1-0.8-0.1-1.4-0.1c-2,0-3.3,1.1-3.6,2.7c-0.1,0.4-0.1,0.8-0.1,1.2v8.7h-5.3V200.3z"/>
	<path fill="#FFFFFF" d="M739,204.9c0.2,2.2,2.3,3.3,4.8,3.3c1.8,0,3.3-0.2,4.7-0.7l0.7,3.6c-1.8,0.7-3.9,1.1-6.2,1.1
		c-5.8,0-9.1-3.4-9.1-8.7c0-4.3,2.7-9.1,8.6-9.1c5.5,0,7.6,4.3,7.6,8.5c0,0.9-0.1,1.7-0.2,2.1H739z M745.2,201.3
		c0-1.3-0.6-3.5-3-3.5c-2.2,0-3.2,2-3.3,3.5H745.2z"/>
</g>
<g>
	<path fill="#FFFFFF" d="M299.2,146.2v23.6h-5.4v-23.6H299.2z"/>
	<path fill="#FFFFFF" d="M303.7,158.1c0-2.1-0.1-4-0.1-5.5h4.6l0.2,2.3h0.1c0.7-1.1,2.5-2.7,5.3-2.7c3.5,0,6.1,2.3,6.1,7.4v10.2
		h-5.3v-9.5c0-2.2-0.8-3.7-2.7-3.7c-1.5,0-2.3,1-2.7,2c-0.1,0.3-0.2,0.8-0.2,1.3v9.9h-5.3V158.1z"/>
	<path fill="#FFFFFF" d="M330,147.7v4.9h3.8v3.9H330v6.2c0,2.1,0.5,3,2.1,3c0.7,0,1.2-0.1,1.6-0.1l0,4c-0.7,0.3-2,0.5-3.5,0.5
		c-1.7,0-3.2-0.6-4-1.5c-1-1-1.5-2.7-1.5-5.1v-7h-2.3v-3.9h2.3v-3.7L330,147.7z"/>
	<path fill="#FFFFFF" d="M340.8,162.9c0.2,2.2,2.3,3.3,4.8,3.3c1.8,0,3.3-0.2,4.7-0.7l0.7,3.6c-1.8,0.7-3.9,1.1-6.2,1.1
		c-5.8,0-9.1-3.4-9.1-8.7c0-4.3,2.7-9.1,8.6-9.1c5.5,0,7.6,4.3,7.6,8.5c0,0.9-0.1,1.7-0.2,2.1H340.8z M347.1,159.3
		c0-1.3-0.6-3.5-3-3.5c-2.2,0-3.2,2-3.3,3.5H347.1z"/>
	<path fill="#FFFFFF" d="M355.2,158.3c0-2.5-0.1-4.2-0.1-5.6h4.6l0.2,3.2h0.1c0.9-2.5,3-3.5,4.6-3.5c0.5,0,0.7,0,1.1,0.1v5
		c-0.4-0.1-0.8-0.1-1.4-0.1c-2,0-3.3,1.1-3.6,2.7c-0.1,0.4-0.1,0.8-0.1,1.2v8.7h-5.3V158.3z"/>
	<path fill="#FFFFFF" d="M377.8,169.8l-0.3-1.7h-0.1c-1.1,1.4-2.9,2.1-4.9,2.1c-3.5,0-5.5-2.5-5.5-5.3c0-4.4,4-6.6,10-6.5v-0.2
		c0-0.9-0.5-2.2-3.1-2.2c-1.8,0-3.6,0.6-4.7,1.3l-1-3.4c1.2-0.7,3.5-1.5,6.7-1.5c5.7,0,7.5,3.4,7.5,7.4v6c0,1.6,0.1,3.2,0.2,4.2
		H377.8z M377.2,161.7c-2.8,0-5,0.6-5,2.7c0,1.4,0.9,2,2.1,2c1.3,0,2.4-0.9,2.8-2c0.1-0.3,0.1-0.6,0.1-0.9V161.7z"/>
	<path fill="#FFFFFF" d="M399.4,169.3c-0.9,0.4-2.7,0.8-4.8,0.8c-5.5,0-9.1-3.4-9.1-8.8c0-5,3.4-9.1,9.8-9.1c1.4,0,2.9,0.2,4.1,0.7
		l-0.8,4c-0.6-0.3-1.6-0.5-3-0.5c-2.8,0-4.6,2-4.6,4.8c0,3.2,2.1,4.8,4.7,4.8c1.3,0,2.2-0.2,3-0.5L399.4,169.3z"/>
	<path fill="#FFFFFF" d="M408.9,147.7v4.9h3.8v3.9h-3.8v6.2c0,2.1,0.5,3,2.1,3c0.7,0,1.2-0.1,1.6-0.1l0,4c-0.7,0.3-2,0.5-3.5,0.5
		c-1.7,0-3.2-0.6-4-1.5c-1-1-1.5-2.7-1.5-5.1v-7h-2.3v-3.9h2.3v-3.7L408.9,147.7z"/>
	<path fill="#FFFFFF" d="M421.3,147.9c0,1.5-1.1,2.7-2.9,2.7c-1.7,0-2.8-1.2-2.8-2.7c0-1.5,1.1-2.7,2.8-2.7
		C420.1,145.2,421.2,146.3,421.3,147.9z M415.8,169.8v-17.1h5.3v17.1H415.8z"/>
	<path fill="#FFFFFF" d="M442.3,161c0,6.3-4.4,9.1-9,9.1c-5,0-8.9-3.3-8.9-8.8c0-5.5,3.6-9.1,9.1-9.1
		C438.8,152.2,442.3,155.9,442.3,161z M429.9,161.2c0,2.9,1.2,5.1,3.5,5.1c2.1,0,3.4-2.1,3.4-5.1c0-2.6-1-5.1-3.4-5.1
		C430.8,156,429.9,158.7,429.9,161.2z"/>
	<path fill="#FFFFFF" d="M445.6,158.1c0-2.1-0.1-4-0.1-5.5h4.6l0.2,2.3h0.1c0.7-1.1,2.5-2.7,5.3-2.7c3.5,0,6.1,2.3,6.1,7.4v10.2
		h-5.3v-9.5c0-2.2-0.8-3.7-2.7-3.7c-1.5,0-2.3,1-2.7,2c-0.1,0.3-0.2,0.8-0.2,1.3v9.9h-5.3V158.1z"/>
	<path fill="#FFFFFF" d="M325.7,188.5c2-0.3,4.5-0.5,7.2-0.5c4.5,0,7.4,0.8,9.7,2.5c2.5,1.8,4,4.7,4,8.9c0,4.5-1.6,7.6-3.9,9.6
		c-2.5,2.1-6.3,3-10.9,3c-2.8,0-4.7-0.2-6.1-0.4V188.5z M331.1,207.7c0.5,0.1,1.2,0.1,1.9,0.1c4.8,0,8-2.6,8-8.3
		c0-4.9-2.8-7.5-7.4-7.5c-1.2,0-2,0.1-2.4,0.2V207.7z"/>
	<path fill="#FFFFFF" d="M354,204.9c0.2,2.2,2.3,3.3,4.8,3.3c1.8,0,3.3-0.2,4.7-0.7l0.7,3.6c-1.8,0.7-3.9,1.1-6.2,1.1
		c-5.8,0-9.1-3.4-9.1-8.7c0-4.3,2.7-9.1,8.6-9.1c5.5,0,7.6,4.3,7.6,8.5c0,0.9-0.1,1.7-0.2,2.1H354z M360.3,201.3
		c0-1.3-0.6-3.5-3-3.5c-2.2,0-3.2,2-3.3,3.5H360.3z"/>
	<path fill="#FFFFFF" d="M368.4,207.1c1,0.6,3,1.3,4.6,1.3c1.6,0,2.3-0.6,2.3-1.4s-0.5-1.3-2.5-2c-3.5-1.2-4.9-3.1-4.9-5.1
		c0-3.2,2.7-5.6,7-5.6c2,0,3.8,0.5,4.8,1l-0.9,3.7c-0.8-0.4-2.2-1-3.7-1c-1.3,0-2,0.5-2,1.4c0,0.8,0.7,1.2,2.8,2
		c3.3,1.1,4.6,2.8,4.7,5.3c0,3.2-2.5,5.5-7.4,5.5c-2.2,0-4.2-0.5-5.5-1.2L368.4,207.1z"/>
	<path fill="#FFFFFF" d="M389.1,189.9c0,1.5-1.1,2.7-2.9,2.7c-1.7,0-2.8-1.2-2.8-2.7c0-1.5,1.1-2.7,2.8-2.7S389,188.3,389.1,189.9z
		 M383.6,211.8v-17.1h5.3v17.1H383.6z"/>
	<path fill="#FFFFFF" d="M409.5,194.6c-0.1,1.1-0.1,2.5-0.1,5.1v9.6c0,3.3-0.7,6-2.6,7.7c-1.9,1.6-4.4,2.1-7,2.1
		c-2.2,0-4.6-0.5-6.2-1.3l1-4c1.1,0.6,3,1.3,5,1.3c2.5,0,4.4-1.4,4.4-4.5v-1.1h-0.1c-1,1.4-2.7,2.2-4.6,2.2c-4.2,0-7.2-3.4-7.2-8.4
		c0-5.5,3.6-9,7.8-9c2.3,0,3.8,1,4.7,2.4h0.1l0.2-2H409.5z M404.1,201.6c0-0.4,0-0.7-0.1-1c-0.4-1.4-1.4-2.3-2.9-2.3
		c-1.9,0-3.5,1.8-3.5,4.9c0,2.6,1.3,4.6,3.5,4.6c1.4,0,2.5-0.9,2.8-2.2c0.1-0.4,0.2-0.9,0.2-1.4V201.6z"/>
	<path fill="#FFFFFF" d="M413.6,200.1c0-2.1-0.1-4-0.1-5.5h4.6l0.2,2.3h0.1c0.7-1.1,2.5-2.7,5.3-2.7c3.5,0,6.1,2.3,6.1,7.4v10.2
		h-5.3v-9.5c0-2.2-0.8-3.7-2.7-3.7c-1.5,0-2.3,1-2.7,2c-0.1,0.3-0.2,0.8-0.2,1.3v9.9h-5.3V200.1z"/>
</g>
<g>
	<path fill="#FFFFFF" d="M130.9,379.1c-1,0.5-3.2,1-6.1,1c-8.2,0-12.4-5.1-12.4-11.8c0-8.1,5.7-12.5,12.9-12.5
		c2.8,0,4.9,0.6,5.8,1.1l-1.1,4.2c-1.1-0.5-2.6-0.9-4.5-0.9c-4.2,0-7.5,2.6-7.5,7.8c0,4.7,2.8,7.7,7.6,7.7c1.6,0,3.4-0.4,4.4-0.8
		L130.9,379.1z"/>
	<path fill="#FFFFFF" d="M150.4,371c0,6.3-4.4,9.1-9,9.1c-5,0-8.9-3.3-8.9-8.8c0-5.5,3.6-9.1,9.1-9.1
		C146.9,362.3,150.4,365.9,150.4,371z M138.1,371.2c0,2.9,1.2,5.1,3.5,5.1c2.1,0,3.4-2.1,3.4-5.1c0-2.6-1-5.1-3.4-5.1
		C139,366.1,138.1,368.7,138.1,371.2z"/>
	<path fill="#FFFFFF" d="M153.7,368.1c0-2.1-0.1-4-0.1-5.5h4.6l0.2,2.3h0.1c0.7-1.1,2.5-2.7,5.3-2.7c3.5,0,6.1,2.3,6.1,7.4v10.2
		h-5.3v-9.5c0-2.2-0.8-3.7-2.7-3.7c-1.5,0-2.3,1-2.7,2c-0.1,0.3-0.2,0.8-0.2,1.3v9.9h-5.3V368.1z"/>
	<path fill="#FFFFFF" d="M180,357.8v4.9h3.8v3.9H180v6.2c0,2.1,0.5,3,2.1,3c0.7,0,1.2-0.1,1.6-0.1l0,4c-0.7,0.3-2,0.5-3.5,0.5
		c-1.7,0-3.2-0.6-4-1.5c-1-1-1.5-2.7-1.5-5.1v-7h-2.3v-3.9h2.3V359L180,357.8z"/>
	<path fill="#FFFFFF" d="M190.8,372.9c0.2,2.2,2.3,3.3,4.8,3.3c1.8,0,3.3-0.2,4.7-0.7l0.7,3.6c-1.8,0.7-3.9,1.1-6.2,1.1
		c-5.8,0-9.1-3.4-9.1-8.7c0-4.3,2.7-9.1,8.6-9.1c5.5,0,7.6,4.3,7.6,8.5c0,0.9-0.1,1.7-0.2,2.1H190.8z M197.1,369.3
		c0-1.3-0.6-3.5-3-3.5c-2.2,0-3.2,2-3.3,3.5H197.1z"/>
	<path fill="#FFFFFF" d="M205.2,368.1c0-2.1-0.1-4-0.1-5.5h4.6l0.2,2.3h0.1c0.7-1.1,2.5-2.7,5.3-2.7c3.5,0,6.1,2.3,6.1,7.4v10.2
		h-5.3v-9.5c0-2.2-0.8-3.7-2.7-3.7c-1.5,0-2.3,1-2.7,2c-0.1,0.3-0.2,0.8-0.2,1.3v9.9h-5.3V368.1z"/>
	<path fill="#FFFFFF" d="M231.4,357.8v4.9h3.8v3.9h-3.8v6.2c0,2.1,0.5,3,2.1,3c0.7,0,1.2-0.1,1.6-0.1l0,4c-0.7,0.3-2,0.5-3.5,0.5
		c-1.7,0-3.2-0.6-4-1.5c-1-1-1.5-2.7-1.5-5.1v-7h-2.3v-3.9h2.3V359L231.4,357.8z"/>
	<path fill="#FFFFFF" d="M109.9,416.3c1.4,0.7,3.6,1.5,5.9,1.5c2.5,0,3.7-1,3.7-2.6c0-1.5-1.1-2.3-4-3.3c-3.9-1.4-6.5-3.5-6.5-7
		c0-4,3.4-7.1,8.9-7.1c2.7,0,4.6,0.6,6,1.2l-1.2,4.3c-0.9-0.5-2.6-1.1-4.9-1.1c-2.3,0-3.4,1.1-3.4,2.3c0,1.5,1.3,2.2,4.4,3.3
		c4.2,1.5,6.1,3.7,6.1,7c0,4-3,7.3-9.5,7.3c-2.7,0-5.4-0.7-6.7-1.4L109.9,416.3z"/>
	<path fill="#FFFFFF" d="M134.2,399.8v4.9h3.8v3.9h-3.8v6.2c0,2.1,0.5,3,2.1,3c0.7,0,1.2-0.1,1.6-0.1l0,4c-0.7,0.3-2,0.5-3.5,0.5
		c-1.7,0-3.2-0.6-4-1.5c-1-1-1.5-2.7-1.5-5.1v-7h-2.3v-3.9h2.3V401L134.2,399.8z"/>
	<path fill="#FFFFFF" d="M141.1,410.3c0-2.5-0.1-4.2-0.1-5.6h4.6l0.2,3.2h0.1c0.9-2.5,3-3.5,4.6-3.5c0.5,0,0.7,0,1.1,0.1v5
		c-0.4-0.1-0.8-0.1-1.4-0.1c-2,0-3.3,1.1-3.6,2.7c-0.1,0.4-0.1,0.8-0.1,1.2v8.7h-5.3V410.3z"/>
	<path fill="#FFFFFF" d="M163.8,421.8l-0.3-1.7h-0.1c-1.1,1.4-2.9,2.1-4.9,2.1c-3.5,0-5.5-2.5-5.5-5.3c0-4.4,4-6.6,10-6.5v-0.2
		c0-0.9-0.5-2.2-3.1-2.2c-1.8,0-3.6,0.6-4.7,1.3l-1-3.4c1.2-0.7,3.5-1.5,6.7-1.5c5.7,0,7.5,3.4,7.5,7.4v6c0,1.6,0.1,3.2,0.2,4.2
		H163.8z M163.1,413.7c-2.8,0-5,0.6-5,2.7c0,1.4,0.9,2,2.1,2c1.3,0,2.4-0.9,2.8-2c0.1-0.3,0.1-0.6,0.1-0.9V413.7z"/>
	<path fill="#FFFFFF" d="M178.2,399.8v4.9h3.8v3.9h-3.8v6.2c0,2.1,0.5,3,2.1,3c0.7,0,1.2-0.1,1.6-0.1l0,4c-0.7,0.3-2,0.5-3.5,0.5
		c-1.7,0-3.2-0.6-4-1.5c-1-1-1.5-2.7-1.5-5.1v-7h-2.3v-3.9h2.3V401L178.2,399.8z"/>
	<path fill="#FFFFFF" d="M189,414.9c0.2,2.2,2.3,3.3,4.8,3.3c1.8,0,3.3-0.2,4.7-0.7l0.7,3.6c-1.8,0.7-3.9,1.1-6.2,1.1
		c-5.8,0-9.1-3.4-9.1-8.7c0-4.3,2.7-9.1,8.6-9.1c5.5,0,7.6,4.3,7.6,8.5c0,0.9-0.1,1.7-0.2,2.1H189z M195.3,411.3
		c0-1.3-0.6-3.5-3-3.5c-2.2,0-3.2,2-3.3,3.5H195.3z"/>
	<path fill="#FFFFFF" d="M219.7,404.7c-0.1,1.1-0.1,2.5-0.1,5.1v9.6c0,3.3-0.7,6-2.6,7.7c-1.9,1.6-4.4,2.1-7,2.1
		c-2.2,0-4.6-0.5-6.2-1.3l1-4c1.1,0.6,3,1.3,5,1.3c2.5,0,4.4-1.4,4.4-4.5v-1.1h-0.1c-1,1.4-2.7,2.2-4.6,2.2c-4.2,0-7.2-3.4-7.2-8.4
		c0-5.5,3.6-9,7.8-9c2.3,0,3.8,1,4.7,2.4h0.1l0.2-2H219.7z M214.3,411.6c0-0.4,0-0.7-0.1-1c-0.4-1.4-1.4-2.3-2.9-2.3
		c-1.9,0-3.5,1.8-3.5,4.9c0,2.6,1.3,4.6,3.5,4.6c1.4,0,2.5-0.9,2.8-2.2c0.1-0.4,0.2-0.9,0.2-1.4V411.6z"/>
	<path fill="#FFFFFF" d="M227.9,404.7l2.6,8.4c0.3,1,0.6,2.3,0.8,3.2h0.1c0.2-0.9,0.5-2.2,0.8-3.2l2.1-8.4h5.7l-4,11.3
		c-2.5,6.8-4.1,9.5-6,11.2c-1.9,1.6-3.8,2.2-5.1,2.3l-1.1-4.5c0.7-0.1,1.5-0.4,2.3-0.9c0.8-0.4,1.7-1.3,2.2-2.1
		c0.2-0.2,0.3-0.5,0.3-0.8c0-0.2,0-0.5-0.2-0.9l-6.3-15.6H227.9z"/>
</g>
<g>
	<path fill="#FFFFFF" d="M161.2,631.2v13.6c0,4.1,1.5,6.1,4.3,6.1c2.8,0,4.3-2,4.3-6.1v-13.6h5.3v13.2c0,7.3-3.7,10.7-9.8,10.7
		c-6,0-9.5-3.3-9.5-10.8v-13.2H161.2z"/>
	<path fill="#FFFFFF" d="M179,650.1c1,0.6,3,1.3,4.6,1.3c1.6,0,2.3-0.6,2.3-1.4s-0.5-1.3-2.5-2c-3.5-1.2-4.9-3.1-4.9-5.1
		c0-3.2,2.7-5.6,7-5.6c2,0,3.8,0.5,4.8,1l-0.9,3.7c-0.8-0.4-2.2-1-3.7-1c-1.3,0-2,0.5-2,1.4c0,0.8,0.7,1.2,2.8,2
		c3.3,1.1,4.6,2.8,4.7,5.3c0,3.2-2.5,5.5-7.4,5.5c-2.2,0-4.2-0.5-5.5-1.2L179,650.1z"/>
	<path fill="#FFFFFF" d="M198.4,647.9c0.2,2.2,2.3,3.3,4.8,3.3c1.8,0,3.3-0.2,4.7-0.7l0.7,3.6c-1.8,0.7-3.9,1-6.2,1
		c-5.8,0-9.1-3.4-9.1-8.7c0-4.3,2.7-9.1,8.6-9.1c5.5,0,7.6,4.3,7.6,8.5c0,0.9-0.1,1.7-0.2,2.1H198.4z M204.6,644.3
		c0-1.3-0.6-3.5-3-3.5c-2.2,0-3.2,2-3.3,3.5H204.6z"/>
	<path fill="#FFFFFF" d="M212.8,643.3c0-2.5-0.1-4.2-0.1-5.6h4.6l0.2,3.2h0.1c0.9-2.5,3-3.5,4.6-3.5c0.5,0,0.7,0,1.1,0.1v5
		c-0.4-0.1-0.8-0.1-1.4-0.1c-2,0-3.3,1.1-3.6,2.7c-0.1,0.4-0.1,0.8-0.1,1.2v8.7h-5.3V643.3z"/>
	<path fill="#FFFFFF" d="M126.4,673.2v23.6H121v-23.6H126.4z"/>
	<path fill="#FFFFFF" d="M130.9,685.1c0-2.1-0.1-4-0.1-5.5h4.6l0.2,2.3h0.1c0.7-1.1,2.5-2.7,5.3-2.7c3.5,0,6.1,2.3,6.1,7.4v10.2
		h-5.3v-9.5c0-2.2-0.8-3.7-2.7-3.7c-1.5,0-2.3,1-2.7,2c-0.1,0.3-0.2,0.8-0.2,1.3v9.9h-5.3V685.1z"/>
	<path fill="#FFFFFF" d="M157.2,674.8v4.9h3.8v3.9h-3.8v6.2c0,2.1,0.5,3,2.1,3c0.7,0,1.2-0.1,1.6-0.1l0,4c-0.7,0.3-2,0.5-3.5,0.5
		c-1.7,0-3.2-0.6-4-1.5c-1-1-1.5-2.7-1.5-5.1v-7h-2.3v-3.9h2.3V676L157.2,674.8z"/>
	<path fill="#FFFFFF" d="M168,689.9c0.2,2.2,2.3,3.3,4.8,3.3c1.8,0,3.3-0.2,4.7-0.7l0.7,3.6c-1.8,0.7-3.9,1-6.2,1
		c-5.8,0-9.1-3.4-9.1-8.7c0-4.3,2.7-9.1,8.6-9.1c5.5,0,7.6,4.3,7.6,8.5c0,0.9-0.1,1.7-0.2,2.1H168z M174.2,686.3
		c0-1.3-0.6-3.5-3-3.5c-2.2,0-3.2,2-3.3,3.5H174.2z"/>
	<path fill="#FFFFFF" d="M182.4,685.3c0-2.5-0.1-4.2-0.1-5.6h4.6l0.2,3.2h0.1c0.9-2.5,3-3.5,4.6-3.5c0.5,0,0.7,0,1.1,0.1v5
		c-0.4-0.1-0.8-0.1-1.4-0.1c-2,0-3.3,1.1-3.6,2.7c-0.1,0.4-0.1,0.8-0.1,1.2v8.7h-5.3V685.3z"/>
	<path fill="#FFFFFF" d="M197.2,696.8v-13.2H195v-3.9h2.2V679c0-2.1,0.6-4.3,2.2-5.7c1.3-1.3,3.2-1.7,4.7-1.7c1.2,0,2.1,0.1,2.8,0.4
		l-0.2,4.1c-0.5-0.1-1-0.2-1.7-0.2c-1.8,0-2.5,1.4-2.5,3v0.9h3.4v3.9h-3.4v13.2H197.2z"/>
	<path fill="#FFFFFF" d="M218.3,696.8l-0.3-1.7h-0.1c-1.1,1.4-2.9,2.1-4.9,2.1c-3.5,0-5.5-2.5-5.5-5.3c0-4.4,4-6.6,10-6.5v-0.2
		c0-0.9-0.5-2.2-3.1-2.2c-1.8,0-3.6,0.6-4.7,1.3l-1-3.4c1.2-0.7,3.5-1.5,6.7-1.5c5.7,0,7.5,3.4,7.5,7.4v6c0,1.6,0.1,3.2,0.2,4.2
		H218.3z M217.6,688.7c-2.8,0-5,0.6-5,2.7c0,1.4,0.9,2,2.1,2c1.3,0,2.4-0.9,2.8-2c0.1-0.3,0.1-0.6,0.1-0.9V688.7z"/>
	<path fill="#FFFFFF" d="M239.9,696.4c-0.9,0.4-2.7,0.8-4.8,0.8c-5.5,0-9.1-3.4-9.1-8.8c0-5,3.4-9.1,9.8-9.1c1.4,0,2.9,0.2,4.1,0.7
		l-0.8,4c-0.6-0.3-1.6-0.5-3-0.5c-2.8,0-4.6,2-4.6,4.8c0,3.2,2.1,4.8,4.7,4.8c1.3,0,2.2-0.2,3-0.5L239.9,696.4z"/>
	<path fill="#FFFFFF" d="M246.5,689.9c0.2,2.2,2.3,3.3,4.8,3.3c1.8,0,3.3-0.2,4.7-0.7l0.7,3.6c-1.8,0.7-3.9,1-6.2,1
		c-5.8,0-9.1-3.4-9.1-8.7c0-4.3,2.7-9.1,8.6-9.1c5.5,0,7.6,4.3,7.6,8.5c0,0.9-0.1,1.7-0.2,2.1H246.5z M252.8,686.3
		c0-1.3-0.6-3.5-3-3.5c-2.2,0-3.2,2-3.3,3.5H252.8z"/>
</g>
<g>
	<path fill="#FFFFFF" d="M825.3,379.8l-7.6-23.6h5.8l2.9,10c0.8,2.8,1.5,5.5,2.1,8.4h0.1c0.6-2.8,1.3-5.6,2.1-8.3l3-10.1h5.7
		l-7.9,23.6H825.3z"/>
	<path fill="#FFFFFF" d="M846.4,357.9c0,1.5-1.1,2.7-2.9,2.7c-1.7,0-2.8-1.2-2.8-2.7c0-1.5,1.1-2.7,2.8-2.7
		C845.2,355.2,846.3,356.4,846.4,357.9z M840.9,379.8v-17.1h5.3v17.1H840.9z"/>
	<path fill="#FFFFFF" d="M850.4,375.1c1,0.6,3,1.3,4.6,1.3c1.6,0,2.3-0.6,2.3-1.4s-0.5-1.3-2.5-2c-3.5-1.2-4.9-3.1-4.9-5.1
		c0-3.2,2.7-5.6,7-5.6c2,0,3.8,0.5,4.8,1l-0.9,3.7c-0.8-0.4-2.2-1-3.7-1c-1.3,0-2,0.5-2,1.4c0,0.8,0.7,1.2,2.8,2
		c3.3,1.1,4.6,2.8,4.7,5.3c0,3.2-2.5,5.5-7.4,5.5c-2.2,0-4.2-0.5-5.5-1.2L850.4,375.1z"/>
	<path fill="#FFFFFF" d="M881.8,374.3c0,2.2,0.1,4.1,0.1,5.5h-4.6l-0.2-2.4H877c-0.7,1-2.3,2.8-5.4,2.8c-3.5,0-6-2.2-6-7.5v-10h5.4
		v9.2c0,2.5,0.8,4,2.7,4c1.5,0,2.3-1,2.7-1.9c0.1-0.3,0.2-0.7,0.2-1.2v-10.2h5.4V374.3z"/>
	<path fill="#FFFFFF" d="M895.8,379.8l-0.3-1.7h-0.1c-1.1,1.4-2.9,2.1-4.9,2.1c-3.5,0-5.5-2.5-5.5-5.3c0-4.4,4-6.6,10-6.5v-0.2
		c0-0.9-0.5-2.2-3.1-2.2c-1.8,0-3.6,0.6-4.7,1.3l-1-3.4c1.2-0.7,3.5-1.5,6.7-1.5c5.7,0,7.5,3.4,7.5,7.4v6c0,1.6,0.1,3.2,0.2,4.2
		H895.8z M895.2,371.7c-2.8,0-5,0.6-5,2.7c0,1.4,0.9,2,2.1,2c1.3,0,2.4-0.9,2.8-2c0.1-0.3,0.1-0.6,0.1-0.9V371.7z"/>
	<path fill="#FFFFFF" d="M904.5,354.9h5.3v24.9h-5.3V354.9z"/>
	<path fill="#FFFFFF" d="M812.7,398.5c2-0.3,4.5-0.5,7.2-0.5c4.5,0,7.4,0.8,9.7,2.5c2.4,1.8,4,4.7,4,8.9c0,4.5-1.6,7.6-3.9,9.6
		c-2.5,2.1-6.3,3-10.9,3c-2.8,0-4.7-0.2-6.1-0.4V398.5z M818.1,417.8c0.5,0.1,1.2,0.1,1.9,0.1c4.8,0,8-2.6,8-8.3
		c0-4.9-2.8-7.5-7.4-7.5c-1.2,0-2,0.1-2.4,0.2V417.8z"/>
	<path fill="#FFFFFF" d="M841,414.9c0.2,2.2,2.3,3.3,4.8,3.3c1.8,0,3.3-0.2,4.7-0.7l0.7,3.6c-1.8,0.7-3.9,1.1-6.2,1.1
		c-5.8,0-9.1-3.4-9.1-8.7c0-4.3,2.7-9.1,8.6-9.1c5.5,0,7.6,4.3,7.6,8.5c0,0.9-0.1,1.7-0.2,2.1H841z M847.3,411.3
		c0-1.3-0.6-3.5-3-3.5c-2.2,0-3.2,2-3.3,3.5H847.3z"/>
	<path fill="#FFFFFF" d="M855.4,417.1c1,0.6,3,1.3,4.6,1.3c1.6,0,2.3-0.6,2.3-1.4s-0.5-1.3-2.5-2c-3.5-1.2-4.9-3.1-4.9-5.1
		c0-3.2,2.7-5.6,7-5.6c2,0,3.8,0.5,4.8,1l-0.9,3.7c-0.8-0.4-2.2-1-3.7-1c-1.3,0-2,0.5-2,1.4c0,0.8,0.7,1.2,2.8,2
		c3.3,1.1,4.6,2.8,4.7,5.3c0,3.2-2.5,5.5-7.4,5.5c-2.2,0-4.2-0.5-5.5-1.2L855.4,417.1z"/>
	<path fill="#FFFFFF" d="M876.1,399.9c0,1.5-1.1,2.7-2.9,2.7c-1.7,0-2.8-1.2-2.8-2.7c0-1.5,1.1-2.7,2.8-2.7S876,398.4,876.1,399.9z
		 M870.6,421.8v-17.1h5.3v17.1H870.6z"/>
	<path fill="#FFFFFF" d="M896.5,404.7c-0.1,1.1-0.1,2.5-0.1,5.1v9.6c0,3.3-0.7,6-2.6,7.7c-1.9,1.6-4.4,2.1-7,2.1
		c-2.2,0-4.6-0.5-6.2-1.3l1-4c1.1,0.6,3,1.3,5,1.3c2.5,0,4.4-1.4,4.4-4.5v-1.1h-0.1c-1,1.4-2.7,2.2-4.6,2.2c-4.2,0-7.2-3.4-7.2-8.4
		c0-5.5,3.6-9,7.8-9c2.3,0,3.8,1,4.7,2.4h0.1l0.2-2H896.5z M891.1,411.6c0-0.4,0-0.7-0.1-1c-0.4-1.4-1.4-2.3-2.9-2.3
		c-1.9,0-3.5,1.8-3.5,4.9c0,2.6,1.3,4.6,3.5,4.6c1.4,0,2.5-0.9,2.8-2.2c0.1-0.4,0.2-0.9,0.2-1.4V411.6z"/>
	<path fill="#FFFFFF" d="M900.7,410.1c0-2.1-0.1-4-0.1-5.5h4.6l0.2,2.3h0.1c0.7-1.1,2.5-2.7,5.3-2.7c3.5,0,6.1,2.3,6.1,7.4v10.2
		h-5.3v-9.5c0-2.2-0.8-3.7-2.7-3.7c-1.5,0-2.3,1-2.7,2c-0.1,0.3-0.2,0.8-0.2,1.3v9.9h-5.3V410.1z"/>
</g>
<g>
	<path fill="#FFFFFF" d="M603.8,860.6v13.6c0,4.1,1.5,6.1,4.3,6.1c2.8,0,4.3-2,4.3-6.1v-13.6h5.3v13.2c0,7.3-3.7,10.7-9.8,10.7
		c-6,0-9.5-3.3-9.5-10.8v-13.2H603.8z"/>
	<path fill="#FFFFFF" d="M621.7,879.6c1,0.6,3,1.3,4.6,1.3c1.6,0,2.3-0.6,2.3-1.4s-0.5-1.3-2.5-2c-3.5-1.2-4.9-3.1-4.9-5.1
		c0-3.2,2.7-5.6,7-5.6c2,0,3.8,0.5,4.8,1l-0.9,3.7c-0.8-0.4-2.2-1-3.7-1c-1.3,0-2,0.5-2,1.4c0,0.8,0.7,1.2,2.8,2
		c3.3,1.1,4.6,2.8,4.7,5.3c0,3.2-2.5,5.5-7.4,5.5c-2.2,0-4.2-0.5-5.5-1.2L621.7,879.6z"/>
	<path fill="#FFFFFF" d="M646.6,884.2l-0.3-1.7h-0.1c-1.1,1.4-2.9,2.1-4.9,2.1c-3.5,0-5.5-2.5-5.5-5.3c0-4.4,4-6.6,10-6.5v-0.2
		c0-0.9-0.5-2.2-3.1-2.2c-1.8,0-3.6,0.6-4.7,1.3l-1-3.4c1.2-0.7,3.5-1.5,6.7-1.5c5.7,0,7.5,3.4,7.5,7.4v6c0,1.6,0.1,3.2,0.2,4.2
		H646.6z M646,876.1c-2.8,0-5,0.6-5,2.7c0,1.4,0.9,2,2.1,2c1.3,0,2.4-0.9,2.8-2c0.1-0.3,0.1-0.6,0.1-0.9V876.1z"/>
	<path fill="#FFFFFF" d="M655.2,884.2c0.1-1.1,0.1-3.2,0.1-5.1v-19.7h5.3v9.8h0.1c1-1.5,2.8-2.4,5.2-2.4c4.1,0,7.1,3.4,7.1,8.6
		c0,6.2-3.9,9.2-7.8,9.2c-2,0-3.9-0.7-5.1-2.8h-0.1l-0.2,2.4H655.2z M660.7,876.9c0,0.4,0,0.7,0.1,0.9c0.3,1.4,1.6,2.5,3.1,2.5
		c2.3,0,3.7-1.8,3.7-4.8c0-2.7-1.2-4.8-3.7-4.8c-1.4,0-2.8,1.1-3.1,2.6c-0.1,0.3-0.1,0.6-0.1,1V876.9z"/>
	<path fill="#FFFFFF" d="M681.8,862.4c0,1.5-1.1,2.7-2.9,2.7c-1.7,0-2.8-1.2-2.8-2.7c0-1.5,1.1-2.7,2.8-2.7
		C680.7,859.7,681.7,860.8,681.8,862.4z M676.3,884.2v-17.1h5.3v17.1H676.3z"/>
	<path fill="#FFFFFF" d="M685.9,859.4h5.3v24.9h-5.3V859.4z"/>
	<path fill="#FFFFFF" d="M701,862.4c0,1.5-1.1,2.7-2.9,2.7c-1.7,0-2.8-1.2-2.8-2.7c0-1.5,1.1-2.7,2.8-2.7S701,860.8,701,862.4z
		 M695.5,884.2v-17.1h5.3v17.1H695.5z"/>
	<path fill="#FFFFFF" d="M711,862.2v4.9h3.8v3.9H711v6.2c0,2.1,0.5,3,2.1,3c0.7,0,1.2-0.1,1.6-0.1l0,4c-0.7,0.3-2,0.5-3.5,0.5
		c-1.7,0-3.2-0.6-4-1.5c-1-1-1.5-2.7-1.5-5.1v-7h-2.3v-3.9h2.3v-3.7L711,862.2z"/>
	<path fill="#FFFFFF" d="M722.1,867.1l2.6,8.4c0.3,1,0.6,2.3,0.8,3.2h0.1c0.2-0.9,0.5-2.2,0.8-3.2l2.1-8.4h5.7l-4,11.3
		c-2.4,6.8-4.1,9.5-6,11.2c-1.9,1.6-3.8,2.2-5.1,2.3l-1.1-4.5c0.7-0.1,1.5-0.4,2.3-0.9c0.8-0.4,1.7-1.3,2.2-2.1
		c0.2-0.2,0.3-0.5,0.3-0.8c0-0.2,0-0.5-0.2-0.9l-6.3-15.6H722.1z"/>
</g>
<g>
	<path fill="#FFFFFF" d="M763.6,639.2H778v4.4h-9.1v5.4h8.5v4.3h-8.5v9.5h-5.4V639.2z"/>
	<path fill="#FFFFFF" d="M797,657.3c0,2.2,0.1,4.1,0.1,5.5h-4.6l-0.2-2.4h-0.1c-0.7,1-2.3,2.8-5.4,2.8c-3.5,0-6-2.2-6-7.5v-10h5.4
		v9.2c0,2.5,0.8,4,2.7,4c1.5,0,2.3-1,2.7-1.9c0.1-0.3,0.2-0.7,0.2-1.2v-10.2h5.4V657.3z"/>
	<path fill="#FFFFFF" d="M801.3,651.1c0-2.1-0.1-4-0.1-5.5h4.6l0.2,2.3h0.1c0.7-1.1,2.5-2.7,5.3-2.7c3.5,0,6.1,2.3,6.1,7.4v10.2
		h-5.3v-9.5c0-2.2-0.8-3.7-2.7-3.7c-1.5,0-2.3,1-2.7,2c-0.1,0.3-0.2,0.8-0.2,1.3v9.9h-5.3V651.1z"/>
	<path fill="#FFFFFF" d="M834.6,662.4c-0.9,0.4-2.7,0.8-4.8,0.8c-5.5,0-9.1-3.4-9.1-8.8c0-5,3.4-9.1,9.8-9.1c1.4,0,2.9,0.2,4.1,0.7
		l-0.8,4c-0.6-0.3-1.6-0.5-3-0.5c-2.8,0-4.6,2-4.6,4.8c0,3.2,2.1,4.8,4.7,4.8c1.3,0,2.2-0.2,3-0.5L834.6,662.4z"/>
	<path fill="#FFFFFF" d="M844.1,640.8v4.9h3.8v3.9h-3.8v6.2c0,2.1,0.5,3,2.1,3c0.7,0,1.2-0.1,1.6-0.1l0,4c-0.7,0.3-2,0.5-3.5,0.5
		c-1.7,0-3.2-0.6-4-1.5c-1-1-1.5-2.7-1.5-5.1v-7h-2.3v-3.9h2.3V642L844.1,640.8z"/>
	<path fill="#FFFFFF" d="M856.5,640.9c0,1.5-1.1,2.7-2.9,2.7c-1.7,0-2.8-1.2-2.8-2.7c0-1.5,1.1-2.7,2.8-2.7
		C855.4,638.2,856.4,639.4,856.5,640.9z M851,662.8v-17.1h5.3v17.1H851z"/>
	<path fill="#FFFFFF" d="M877.5,654c0,6.3-4.4,9.1-9,9.1c-5,0-8.9-3.3-8.9-8.8c0-5.5,3.6-9.1,9.1-9.1
		C874,645.3,877.5,648.9,877.5,654z M865.1,654.2c0,2.9,1.2,5.1,3.5,5.1c2.1,0,3.4-2.1,3.4-5.1c0-2.6-1-5.1-3.4-5.1
		C866,649.1,865.1,651.7,865.1,654.2z"/>
	<path fill="#FFFFFF" d="M880.8,651.1c0-2.1-0.1-4-0.1-5.5h4.6l0.2,2.3h0.1c0.7-1.1,2.5-2.7,5.3-2.7c3.5,0,6.1,2.3,6.1,7.4v10.2
		h-5.3v-9.5c0-2.2-0.8-3.7-2.7-3.7c-1.5,0-2.3,1-2.7,2c-0.1,0.3-0.2,0.8-0.2,1.3v9.9h-5.3V651.1z"/>
	<path fill="#FFFFFF" d="M911,662.8l-0.3-1.7h-0.1c-1.1,1.4-2.9,2.1-4.9,2.1c-3.5,0-5.5-2.5-5.5-5.3c0-4.4,4-6.6,10-6.5v-0.2
		c0-0.9-0.5-2.2-3.1-2.2c-1.8,0-3.6,0.6-4.7,1.3l-1-3.4c1.2-0.7,3.5-1.5,6.7-1.5c5.7,0,7.5,3.4,7.5,7.4v6c0,1.6,0.1,3.2,0.2,4.2H911
		z M910.4,654.7c-2.8,0-5,0.6-5,2.7c0,1.4,0.9,2,2.1,2c1.3,0,2.4-0.9,2.8-2c0.1-0.3,0.1-0.6,0.1-0.9V654.7z"/>
	<path fill="#FFFFFF" d="M919.8,637.9h5.3v24.9h-5.3V637.9z"/>
	<path fill="#FFFFFF" d="M934.9,640.9c0,1.5-1.1,2.7-2.9,2.7c-1.7,0-2.8-1.2-2.8-2.7c0-1.5,1.1-2.7,2.8-2.7
		C933.8,638.2,934.8,639.4,934.9,640.9z M929.4,662.8v-17.1h5.3v17.1H929.4z"/>
	<path fill="#FFFFFF" d="M944.9,640.8v4.9h3.8v3.9h-3.8v6.2c0,2.1,0.5,3,2.1,3c0.7,0,1.2-0.1,1.6-0.1l0,4c-0.7,0.3-2,0.5-3.5,0.5
		c-1.7,0-3.2-0.6-4-1.5c-1-1-1.5-2.7-1.5-5.1v-7h-2.3v-3.9h2.3V642L944.9,640.8z"/>
	<path fill="#FFFFFF" d="M956,645.7l2.6,8.4c0.3,1,0.6,2.3,0.8,3.2h0.1c0.2-0.9,0.5-2.2,0.8-3.2l2.1-8.4h5.7l-4,11.3
		c-2.5,6.8-4.1,9.5-6,11.2c-1.9,1.6-3.8,2.2-5.1,2.3l-1.1-4.5c0.7-0.1,1.5-0.4,2.3-0.9c0.8-0.4,1.7-1.3,2.2-2.1
		c0.2-0.2,0.3-0.5,0.3-0.8c0-0.2,0-0.5-0.2-0.9l-6.3-15.6H956z"/>
</g>
<g>
	<path fill="#FFFFFF" d="M276.6,861.1h-6.3v-4.5h18.1v4.5H282v19.1h-5.4V861.1z"/>
	<path fill="#FFFFFF" d="M293.2,863.1l2.6,8.4c0.3,1,0.6,2.3,0.8,3.2h0.1c0.2-0.9,0.5-2.2,0.8-3.2l2.1-8.4h5.7l-4,11.3
		c-2.5,6.8-4.1,9.5-6,11.2c-1.9,1.6-3.8,2.2-5.1,2.3l-1.1-4.5c0.7-0.1,1.5-0.4,2.3-0.9c0.8-0.4,1.7-1.3,2.2-2.1
		c0.2-0.2,0.3-0.5,0.3-0.8c0-0.2,0-0.5-0.2-0.9l-6.3-15.6H293.2z"/>
	<path fill="#FFFFFF" d="M307.5,868.9c0-2.2-0.1-4.2-0.1-5.7h4.6l0.2,2.4h0.1c1.3-1.8,3.2-2.8,5.7-2.8c3.7,0,7.1,3.3,7.1,8.7
		c0,6.2-4,9.2-7.8,9.2c-2.1,0-3.7-0.8-4.4-2h-0.1v8.5h-5.3V868.9z M312.9,872.9c0,0.4,0,0.8,0.1,1.1c0.4,1.4,1.6,2.5,3.1,2.5
		c2.3,0,3.7-1.9,3.7-4.8c0-2.7-1.2-4.8-3.6-4.8c-1.5,0-2.8,1.1-3.2,2.7c-0.1,0.3-0.1,0.6-0.1,0.9V872.9z"/>
	<path fill="#FFFFFF" d="M345.5,871.5c0,6.3-4.4,9.1-9,9.1c-5,0-8.9-3.3-8.9-8.8c0-5.5,3.6-9.1,9.1-9.1
		C342,862.7,345.5,866.3,345.5,871.5z M333.1,871.7c0,2.9,1.2,5.1,3.5,5.1c2.1,0,3.4-2.1,3.4-5.1c0-2.6-1-5.1-3.4-5.1
		C334,866.5,333.1,869.1,333.1,871.7z"/>
	<path fill="#FFFFFF" d="M365.2,863.1c-0.1,1.1-0.1,2.5-0.1,5.1v9.6c0,3.3-0.7,6-2.6,7.7c-1.9,1.6-4.4,2.1-7,2.1
		c-2.2,0-4.6-0.5-6.2-1.3l1-4c1.1,0.6,3,1.3,5,1.3c2.5,0,4.4-1.4,4.4-4.5v-1.1h-0.1c-1,1.4-2.7,2.2-4.6,2.2c-4.2,0-7.2-3.4-7.2-8.4
		c0-5.5,3.6-9,7.8-9c2.3,0,3.8,1,4.7,2.4h0.1l0.2-2H365.2z M359.8,870.1c0-0.3,0-0.7-0.1-1c-0.4-1.4-1.4-2.3-2.9-2.3
		c-1.9,0-3.5,1.8-3.5,4.9c0,2.6,1.3,4.5,3.5,4.5c1.4,0,2.5-0.9,2.8-2.2c0.1-0.4,0.2-0.9,0.2-1.4V870.1z"/>
	<path fill="#FFFFFF" d="M369.4,868.7c0-2.5-0.1-4.2-0.1-5.6h4.6l0.2,3.2h0.1c0.9-2.5,3-3.5,4.6-3.5c0.5,0,0.7,0,1.1,0.1v5
		c-0.4-0.1-0.8-0.1-1.4-0.1c-2,0-3.3,1.1-3.6,2.7c-0.1,0.4-0.1,0.8-0.1,1.2v8.7h-5.3V868.7z"/>
	<path fill="#FFFFFF" d="M392,880.2l-0.3-1.7h-0.1c-1.1,1.4-2.9,2.1-4.9,2.1c-3.5,0-5.5-2.5-5.5-5.3c0-4.4,4-6.6,10-6.5v-0.2
		c0-0.9-0.5-2.2-3.1-2.2c-1.8,0-3.6,0.6-4.7,1.3l-1-3.4c1.2-0.7,3.5-1.5,6.7-1.5c5.7,0,7.5,3.4,7.5,7.4v6c0,1.6,0.1,3.2,0.2,4.2H392
		z M391.4,872.1c-2.8,0-5,0.6-5,2.7c0,1.4,0.9,2,2.1,2c1.3,0,2.4-0.9,2.8-2c0.1-0.3,0.1-0.6,0.1-0.9V872.1z"/>
	<path fill="#FFFFFF" d="M400.8,868.9c0-2.2-0.1-4.2-0.1-5.7h4.6l0.2,2.4h0.1c1.3-1.8,3.2-2.8,5.7-2.8c3.7,0,7.1,3.3,7.1,8.7
		c0,6.2-4,9.2-7.8,9.2c-2.1,0-3.7-0.8-4.4-2h-0.1v8.5h-5.3V868.9z M406.1,872.9c0,0.4,0,0.8,0.1,1.1c0.3,1.4,1.6,2.5,3.1,2.5
		c2.3,0,3.7-1.9,3.7-4.8c0-2.7-1.2-4.8-3.6-4.8c-1.5,0-2.8,1.1-3.2,2.7c-0.1,0.3-0.1,0.6-0.1,0.9V872.9z"/>
	<path fill="#FFFFFF" d="M421.7,855.4h5.3v9.8h0.1c0.6-0.7,1.3-1.3,2.1-1.8c0.8-0.4,1.8-0.7,2.8-0.7c3.4,0,6,2.3,6,7.5v10h-5.3v-9.4
		c0-2.2-0.8-3.8-2.8-3.8c-1.4,0-2.3,0.9-2.7,1.9c-0.1,0.4-0.2,0.8-0.2,1.2v10.2h-5.3V855.4z"/>
	<path fill="#FFFFFF" d="M445.5,863.1l2.6,8.4c0.3,1,0.6,2.3,0.8,3.2h0.1c0.2-0.9,0.5-2.2,0.8-3.2l2.1-8.4h5.7l-4,11.3
		c-2.5,6.8-4.1,9.5-6,11.2c-1.9,1.6-3.8,2.2-5.1,2.3l-1.1-4.5c0.7-0.1,1.5-0.4,2.3-0.9c0.8-0.4,1.7-1.3,2.2-2.1
		c0.2-0.2,0.3-0.5,0.3-0.8c0-0.2,0-0.5-0.2-0.9l-6.3-15.6H445.5z"/>
</g>
</svg>
